<svg>
    <g>
      <path fill-rule="evenodd" d="M8.281 4.207c.727 0 1.4.182 2.022.545a4.055 4.055 0 0 1 1.476 1.477c.364.62.545 1.294.545 2.021 0 .727-.181 1.4-.545 2.021a4.055 4.055 0 0 1-1.476 1.477 3.934 3.934 0 0 1-2.022.545c-.726 0-1.4-.182-2.021-.545a4.055 4.055 0 0 1-1.477-1.477 3.934 3.934 0 0 1-.545-2.021c0-.727.182-1.4.545-2.021A4.055 4.055 0 0 1 6.26 4.752a3.934 3.934 0 0 1 2.021-.545zm0 6.68a2.54 2.54 0 0 0 1.864-.774 2.54 2.54 0 0 0 .773-1.863 2.54 2.54 0 0 0-.773-1.863 2.54 2.54 0 0 0-1.864-.774 2.54 2.54 0 0 0-1.863.774 2.54 2.54 0 0 0-.773 1.863c0 .727.257 1.348.773 1.863a2.54 2.54 0 0 0 1.863.774zM13.45 4.03c-.023.258-.123.48-.299.668a.856.856 0 0 1-.65.281.913.913 0 0 1-.668-.28.913.913 0 0 1-.281-.669c0-.258.094-.48.281-.668a.913.913 0 0 1 .668-.28c.258 0 .48.093.668.28.187.188.281.41.281.668zm2.672.95c.023.656.035 1.746.035 3.269 0 1.523-.017 2.62-.053 3.287-.035.668-.134 1.248-.298 1.74a4.098 4.098 0 0 1-.967 1.53 4.098 4.098 0 0 1-1.53.966c-.492.164-1.072.264-1.74.3-.668.034-1.763.052-3.287.052-1.523 0-2.619-.018-3.287-.053-.668-.035-1.248-.146-1.74-.334a3.747 3.747 0 0 1-1.53-.931 4.098 4.098 0 0 1-.966-1.53c-.164-.492-.264-1.072-.299-1.74C.424 10.87.406 9.773.406 8.25S.424 5.63.46 4.963c.035-.668.135-1.248.299-1.74.21-.586.533-1.096.967-1.53A4.098 4.098 0 0 1 3.254.727c.492-.164 1.072-.264 1.74-.3C5.662.394 6.758.376 8.281.376c1.524 0 2.62.018 3.287.053.668.035 1.248.135 1.74.299a4.098 4.098 0 0 1 2.496 2.496c.165.492.27 1.078.317 1.757zm-1.687 7.91c.14-.399.234-1.032.28-1.899.024-.515.036-1.242.036-2.18V7.689c0-.961-.012-1.688-.035-2.18-.047-.89-.14-1.524-.281-1.899a2.537 2.537 0 0 0-1.512-1.511c-.375-.14-1.008-.235-1.899-.282a51.292 51.292 0 0 0-2.18-.035H7.72c-.938 0-1.664.012-2.18.035-.867.047-1.5.141-1.898.282a2.537 2.537 0 0 0-1.512 1.511c-.14.375-.234 1.008-.281 1.899a51.292 51.292 0 0 0-.036 2.18v1.125c0 .937.012 1.664.036 2.18.047.866.14 1.5.28 1.898.306.726.81 1.23 1.513 1.511.398.141 1.03.235 1.898.282.516.023 1.242.035 2.18.035h1.125c.96 0 1.687-.012 2.18-.035.89-.047 1.523-.141 1.898-.282.726-.304 1.23-.808 1.512-1.511z"></path>
    </g>
  </svg>